<svg width="32" height="32" viewBox="0 0 32 32" fill="none" xmlns="http://www.w3.org/2000/svg">
<path d="M13.2886 31V21.8364H14.6966V25.8216H15.6273L18.9205 21.8364H20.7341L17.0352 26.2511L20.7818 31H18.9682L15.9614 27.1341H14.6966V31H13.2886ZM28.4718 21.8364V23.1489H24.224V31H22.8161V21.8364H28.4718Z" fill="black"/>
<path d="M6.825 13.0364H0.620455V11.7239H6.825C7.39773 11.7239 7.87102 11.6244 8.24489 11.4256C8.61875 11.2227 8.89716 10.9483 9.08011 10.6023C9.26307 10.2523 9.35455 9.85454 9.35455 9.40909C9.35455 8.96364 9.26307 8.5679 9.08011 8.22187C8.89716 7.87187 8.61875 7.59744 8.24489 7.39858C7.87102 7.19574 7.39773 7.09432 6.825 7.09432H4.03295V18H2.55341V5.78182H6.825C7.73182 5.78182 8.47955 5.94687 9.06818 6.27699C9.65682 6.6071 10.0943 7.04659 10.3807 7.59545C10.667 8.14432 10.8102 8.74886 10.8102 9.40909C10.8102 10.0693 10.667 10.6739 10.3807 11.2227C10.0943 11.7716 9.65682 12.2111 9.06818 12.5412C8.47955 12.8713 7.73182 13.0364 6.825 13.0364ZM6.72955 14.1818V15.4943H0.620455V14.1818H6.72955Z" fill="black"/>
<path d="M23.7459 4.6673L4.79034 26.4232L3.08468 25.5913L22.0402 3.83539L23.7459 4.6673Z" fill="black"/>
</svg>
